Coordinates
version=1
nRows=54
nColumns=12
inDegrees=yes

Units are S.I. units (second, meters, Newtons, ...)
Angles are in degrees

endheader
time	SC_y	SC_z	SC_x	AC_y	AC_z	AC_x	GH_y	GH_z	GH_yy	EL_x	PS_y
       0.0              -12.52           29.1          6.724          39.83          5.682         -16.29         -51.87          79.48         -126.5          13.87          156.7
  0.004543              -12.52           29.1          6.734          39.83           5.68         -16.29         -51.87          79.48         -126.5          13.88          156.7
  0.009085              -12.52           29.1          6.746          39.83          5.678         -16.28         -51.88          79.48         -126.5          13.89          156.7
   0.01363              -12.52          29.09          6.758          39.83          5.675         -16.28         -51.89          79.47         -126.4          13.89          156.7
   0.01817              -12.52          29.09          6.771          39.83          5.673         -16.27          -51.9          79.47         -126.4           13.9          156.7
   0.02271              -12.52          29.09          6.785          39.83           5.67         -16.26         -51.91          79.47         -126.4          13.91          156.7
   0.02726              -12.52          29.09            6.8          39.83          5.667         -16.26         -51.92          79.46         -126.4          13.92          156.7
    0.0318              -12.52          29.08          6.815          39.83          5.664         -16.25         -51.93          79.46         -126.4          13.93          156.7
   0.03634              -12.52          29.08          6.832          39.83           5.66         -16.24         -51.94          79.45         -126.4          13.94          156.7
   0.04088              -12.52          29.08          6.851          39.83          5.657         -16.23         -51.95          79.45         -126.4          13.95          156.7
   0.04543              -12.52          29.07           6.87          39.83          5.653         -16.22         -51.97          79.44         -126.4          13.97          156.7
   0.04997              -12.53          29.07          6.891          39.83          5.649         -16.21         -51.98          79.43         -126.3          13.98          156.6
   0.05451              -12.53          29.07          6.914          39.83          5.644          -16.2          -52.0          79.43         -126.3          13.99          156.6
   0.05905              -12.53          29.06          6.938          39.83          5.639         -16.19         -52.01          79.42         -126.3          14.01          156.6
    0.0636              -12.53          29.06          6.965          39.83          5.634         -16.18         -52.03          79.41         -126.3          14.03          156.6
   0.06814              -12.53          29.05          6.993          39.83          5.628         -16.17         -52.05           79.4         -126.3          14.04          156.6
   0.07268              -12.53          29.05          7.024          39.83          5.622         -16.15         -52.07          79.39         -126.2          14.06          156.6
   0.07723              -12.53          29.04          7.058          39.83          5.615         -16.14          -52.1          79.38         -126.2          14.08          156.6
   0.08177              -12.54          29.03          7.096          39.83          5.608         -16.12         -52.12          79.37         -126.2          14.11          156.6
   0.08631              -12.54          29.03          7.136          39.83          5.599          -16.1         -52.15          79.36         -126.2          14.13          156.6
   0.09085              -12.54          29.02          7.181          39.83           5.59         -16.08         -52.18          79.35         -126.1          14.16          156.6
    0.0954              -12.54          29.01           7.23          39.83          5.581         -16.06         -52.21          79.33         -126.1          14.19          156.6
   0.09994              -12.55           29.0          7.284          39.83           5.57         -16.04         -52.25          79.31         -126.0          14.23          156.6
    0.1045              -12.55          28.99          7.344          39.83          5.558         -16.01         -52.29           79.3         -126.0          14.27          156.5
     0.109              -12.55          28.98          7.411          39.83          5.544         -15.98         -52.34          79.27         -125.9          14.31          156.5
    0.1136              -12.56          28.96          7.485          39.83          5.529         -15.95         -52.39          79.25         -125.9          14.35          156.5
    0.1181              -12.56          28.95          7.569          39.83          5.512         -15.91         -52.45          79.23         -125.8          14.41          156.5
    0.1227              -12.57          28.93          7.663          39.83          5.493         -15.87         -52.51           79.2         -125.7          14.47          156.5
    0.1272              -12.57          28.91          7.769          39.83          5.472         -15.82         -52.58          79.17         -125.7          14.53          156.4
    0.1317              -12.58          28.89          7.889          39.83          5.448         -15.76         -52.67          79.13         -125.6          14.61          156.4
    0.1363              -12.59          28.87          8.027          39.83           5.42          -15.7         -52.76          79.09         -125.5           14.7          156.4
    0.1408               -12.6          28.84          8.184          39.83          5.389         -15.63         -52.87          79.04         -125.3           14.8          156.3
    0.1454              -12.61           28.8          8.366          39.83          5.352         -15.55         -52.99          78.98         -125.2          14.91          156.3
    0.1499              -12.62          28.77          8.578          39.83          5.309         -15.45         -53.14          78.92         -125.0          15.05          156.2
    0.1545              -12.63          28.72          8.826          39.83           5.26         -15.34         -53.31          78.84         -124.8           15.2          156.2
     0.159              -12.65          28.67          9.118          39.83          5.201         -15.21         -53.51          78.75         -124.6          15.39          156.1
    0.1635              -12.66          28.61          9.465          39.83          5.131         -15.05         -53.75          78.65         -124.3          15.61          156.0
    0.1681              -12.69          28.53           9.88          39.83          5.047         -14.86         -54.03          78.52         -124.0          15.87          155.9
    0.1726              -12.71          28.44          10.38          39.83          4.946         -14.63         -54.38          78.37         -123.6          16.19          155.8
    0.1772              -12.75          28.33           11.0          39.83          4.823         -14.36          -54.8          78.18         -123.1          16.58          155.6
    0.1817              -12.79           28.2          11.76          39.83           4.67         -14.01         -55.32          77.95         -122.5          17.06          155.4
    0.1862              -12.84          28.03           12.7          39.84           4.48         -13.58         -55.97          77.66         -121.8          17.66          155.2
    0.1908               -12.9          27.81          13.89          39.84           4.24         -13.05         -56.78           77.3         -120.8          18.41          154.9
    0.1953              -12.99          27.54          15.41          39.84          3.936         -12.36         -57.82          76.84         -119.7          19.37          154.5
    0.1999              -13.09          27.19          17.35          39.84          3.546         -11.48         -59.15          76.25         -118.1          20.59          154.0
    0.2044              -13.22          26.74          19.83          39.84          3.045         -10.36         -60.86          75.49         -116.2          22.17          153.4
     0.209               -13.4          26.17          23.01          39.85          2.406         -8.919         -63.04          74.52         -113.7          24.18          152.6
    0.2135              -13.61          25.45          27.01          39.85          1.602          -7.11         -65.78           73.3         -110.5          26.71          151.6
     0.218              -13.88          24.58          31.88          39.86         0.6231         -4.907         -69.11          71.82         -106.7          29.79          150.4
    0.2226              -14.18          23.57          37.52          39.87        -0.5121         -2.352         -72.98           70.1         -102.3          33.36          148.9
    0.2271              -14.51          22.47          43.63          39.87         -1.741         0.4135         -77.18          68.24         -97.49          37.22          147.4
    0.2317              -14.84          21.37          49.75          39.88         -2.971          3.179         -81.37          66.37         -92.69          41.09          145.9
    0.2362              -15.15          20.36          55.39          39.89         -4.106          5.734         -85.24          64.65         -88.25          44.66          144.5
    0.2408              -15.41          19.48          60.26          39.89         -5.085          7.938         -88.58          63.17         -84.43          47.74          143.2
